<svg width="21" height="20" viewBox="0 0 21 20" fill="none" xmlns="http://www.w3.org/2000/svg">
<path d="M19.3486 0.11937H1.7028C1.27748 0.119796 0.869702 0.291369 0.568954 0.596435C0.268207 0.901502 0.0990627 1.31514 0.0986425 1.74657V17.8994C0.09758 18.2097 0.184164 18.5139 0.348155 18.7759C0.512145 19.0379 0.746679 19.2467 1.02402 19.3778C1.30135 19.5088 1.60989 19.5566 1.91313 19.5153C2.21637 19.4741 2.50163 19.3457 2.73517 19.1452L5.91921 16.4295L19.3486 16.3913C19.7739 16.3909 20.1817 16.2193 20.4824 15.9143C20.7832 15.6092 20.9523 15.1956 20.9527 14.7641V1.74657C20.9523 1.31514 20.7832 0.901501 20.4824 0.596435C20.1817 0.291369 19.7739 0.119795 19.3486 0.11937V0.11937ZM5.7131 9.47655C5.47515 9.47655 5.24254 9.40497 5.04469 9.27087C4.84683 9.13677 4.69263 8.94617 4.60156 8.72318C4.5105 8.50018 4.48668 8.2548 4.5331 8.01806C4.57952 7.78133 4.69411 7.56387 4.86237 7.3932C5.03063 7.22252 5.245 7.10629 5.47839 7.0592C5.71177 7.01211 5.95368 7.03628 6.17352 7.12865C6.39336 7.22102 6.58126 7.37744 6.71346 7.57813C6.84566 7.77883 6.91622 8.01478 6.91622 8.25615C6.91622 8.57982 6.78947 8.89023 6.56384 9.1191C6.33821 9.34797 6.03219 9.47655 5.7131 9.47655ZM10.5256 9.47655C10.2876 9.47655 10.055 9.40497 9.85717 9.27087C9.65931 9.13677 9.50511 8.94617 9.41405 8.72318C9.32298 8.50018 9.29916 8.2548 9.34558 8.01806C9.392 7.78133 9.50659 7.56387 9.67485 7.3932C9.84311 7.22252 10.0575 7.10629 10.2909 7.0592C10.5242 7.01211 10.7662 7.03628 10.986 7.12865C11.2058 7.22102 11.3937 7.37744 11.5259 7.57813C11.6581 7.77883 11.7287 8.01478 11.7287 8.25615C11.7287 8.57982 11.6019 8.89023 11.3763 9.1191C11.1507 9.34797 10.8447 9.47655 10.5256 9.47655ZM15.3381 9.47655C15.1001 9.47655 14.8675 9.40497 14.6696 9.27087C14.4718 9.13677 14.3176 8.94617 14.2265 8.72318C14.1355 8.50018 14.1116 8.2548 14.1581 8.01806C14.2045 7.78133 14.3191 7.56387 14.4873 7.3932C14.6556 7.22252 14.87 7.10629 15.1033 7.0592C15.3367 7.01211 15.5786 7.03628 15.7985 7.12865C16.0183 7.22102 16.2062 7.37744 16.3384 7.57813C16.4706 7.77883 16.5412 8.01478 16.5412 8.25615C16.5412 8.57982 16.4144 8.89023 16.1888 9.1191C15.9632 9.34797 15.6572 9.47655 15.3381 9.47655Z" fill="#8E8E9E"/>
</svg>
