<svg width="18" height="18" viewBox="0 0 18 18" fill="none" xmlns="http://www.w3.org/2000/svg">
<path d="M16.8327 9.24108C16.7452 9.17674 16.6423 9.13641 16.5344 9.1241C16.4265 9.11178 16.3172 9.12792 16.2175 9.17089C15.1838 9.61356 14.0412 9.73644 12.9371 9.52368C11.8329 9.31093 10.8178 8.77231 10.0226 7.97725C9.22741 7.1822 8.68862 6.16717 8.47568 5.06305C8.26275 3.95893 8.38544 2.81633 8.82793 1.78259C8.87071 1.68274 8.88672 1.57346 8.87439 1.46554C8.86206 1.35762 8.8218 1.25477 8.75759 1.16715C8.69339 1.07953 8.60745 1.01016 8.50826 0.965885C8.40906 0.921609 8.30004 0.903956 8.19195 0.914666C6.66139 1.06769 5.2057 1.65202 3.99413 2.59972C2.78257 3.54742 1.86489 4.81956 1.34781 6.26823C0.830723 7.7169 0.735467 9.28259 1.07312 10.7833C1.41076 12.2839 2.16745 13.6579 3.25518 14.7455C4.34292 15.8331 5.71703 16.5896 7.21776 16.9271C8.71848 17.2645 10.2842 17.169 11.7328 16.6518C13.1814 16.1345 14.4534 15.2166 15.4009 14.0049C16.3484 12.7932 16.9326 11.3375 17.0854 9.80688C17.0961 9.69874 17.0785 9.58966 17.0342 9.49043C16.9898 9.39121 16.9204 9.30526 16.8327 9.24108Z" fill="#88889E"/>
</svg>
