<svg width="19" height="22" viewBox="0 0 19 22" fill="none" xmlns="http://www.w3.org/2000/svg">
<path d="M18.1071 6.51912L12.4993 0.83082C12.4913 0.822677 12.4826 0.815525 12.4742 0.807779C12.4634 0.797698 12.4529 0.78727 12.4415 0.777785C12.434 0.771529 12.4259 0.766065 12.4182 0.760057C12.4051 0.749878 12.3921 0.739548 12.3784 0.730163C12.3722 0.725941 12.3655 0.722417 12.3593 0.718393C12.3434 0.708214 12.3275 0.698084 12.3108 0.688996C12.3063 0.686563 12.3016 0.684676 12.2971 0.682342C12.2783 0.672509 12.2593 0.663075 12.2397 0.654781C12.2366 0.653489 12.2334 0.652543 12.2303 0.651305C12.2092 0.642713 12.1878 0.634669 12.1659 0.627914C12.1627 0.62692 12.1594 0.626324 12.1563 0.62538C12.1345 0.618973 12.1125 0.613066 12.09 0.608498C12.0829 0.607058 12.0755 0.606412 12.0683 0.605171C12.0497 0.601894 12.0312 0.598566 12.0122 0.59668C11.9856 0.593936 11.9589 0.592561 11.9321 0.59256H2.30632C1.88101 0.593053 1.47327 0.764649 1.17253 1.0697C0.871801 1.37475 0.702635 1.78835 0.702148 2.21976V20.119C0.702635 20.5504 0.871801 20.964 1.17253 21.269C1.47327 21.5741 1.88101 21.7457 2.30632 21.7462H16.7446C17.1699 21.7457 17.5776 21.5741 17.8784 21.269C18.1791 20.964 18.3483 20.5504 18.3488 20.119V7.11711C18.3489 7.1118 18.3495 7.10668 18.3495 7.10137C18.3496 6.99279 18.3282 6.88531 18.2866 6.78529C18.2449 6.68527 18.1839 6.59476 18.1071 6.51912V6.51912ZM12.7342 16.051H6.31751C6.10479 16.051 5.90078 15.9653 5.75036 15.8127C5.59994 15.6601 5.51543 15.4532 5.51543 15.2374C5.51543 15.0216 5.59994 14.8147 5.75036 14.6621C5.90078 14.5095 6.10479 14.4238 6.31751 14.4238H12.7342C12.9469 14.4238 13.1509 14.5095 13.3013 14.6621C13.4518 14.8147 13.5363 15.0216 13.5363 15.2374C13.5363 15.4532 13.4518 15.6601 13.3013 15.8127C13.1509 15.9653 12.9469 16.051 12.7342 16.051ZM12.7342 12.7966H6.31751C6.10479 12.7966 5.90078 12.7109 5.75036 12.5583C5.59994 12.4057 5.51543 12.1988 5.51543 11.983C5.51543 11.7672 5.59994 11.5602 5.75036 11.4077C5.90078 11.2551 6.10479 11.1694 6.31751 11.1694H12.7342C12.9469 11.1694 13.1509 11.2551 13.3013 11.4077C13.4518 11.5602 13.5363 11.7672 13.5363 11.983C13.5363 12.1988 13.4518 12.4057 13.3013 12.5583C13.1509 12.7109 12.9469 12.7966 12.7342 12.7966ZM11.9321 7.10137V2.55674L16.4123 7.10137H11.9321Z" fill="#8E8E9E"/>
</svg>
