<svg width="20" height="20" viewBox="0 0 20 20" fill="none" xmlns="http://www.w3.org/2000/svg">
<path d="M19.75 18.1244V1.87439C19.7496 1.44354 19.5782 1.03047 19.2736 0.725811C18.9689 0.421157 18.5558 0.249815 18.125 0.24939H1.875C1.44415 0.249815 1.03108 0.421157 0.726422 0.725811C0.421767 1.03047 0.250426 1.44354 0.25 1.87439V18.1244C0.250425 18.5552 0.421767 18.9683 0.726421 19.273C1.03108 19.5776 1.44415 19.749 1.875 19.7494H18.125C18.5558 19.749 18.9689 19.5776 19.2736 19.273C19.5782 18.9683 19.7496 18.5552 19.75 18.1244ZM8.80981 14.0222L5.36403 10.5748C5.21168 10.4221 5.12612 10.2151 5.12612 9.99939C5.12612 9.78364 5.21168 9.5767 5.36403 9.42394L8.80981 5.97815C8.96223 5.82606 9.16878 5.7407 9.3841 5.74081C9.59941 5.74093 9.80588 5.82651 9.95813 5.97876C10.1104 6.13102 10.196 6.33748 10.1961 6.5528C10.1962 6.76811 10.1108 6.97467 9.95874 7.12708L7.89893 9.18689H14.0625C14.278 9.18689 14.4847 9.27249 14.637 9.42487C14.7894 9.57724 14.875 9.7839 14.875 9.99939C14.875 10.2149 14.7894 10.4215 14.637 10.5739C14.4847 10.7263 14.278 10.8119 14.0625 10.8119H7.89843L9.95874 12.8733C10.1108 13.0257 10.1962 13.2323 10.1961 13.4476C10.196 13.6629 10.1104 13.8694 9.95813 14.0216C9.80588 14.1739 9.59941 14.2594 9.3841 14.2596C9.16878 14.2597 8.96223 14.1743 8.80981 14.0222V14.0222Z" fill="#9292A6"/>
</svg>
