<svg width="18" height="18" viewBox="0 0 18 18" fill="none" xmlns="http://www.w3.org/2000/svg">
<path d="M9 14.3125C11.934 14.3125 14.3125 11.934 14.3125 9C14.3125 6.06599 11.934 3.6875 9 3.6875C6.06599 3.6875 3.6875 6.06599 3.6875 9C3.6875 11.934 6.06599 14.3125 9 14.3125Z" fill="#6D6D85"/>
<path d="M9 2.4375C9.08208 2.4375 9.16335 2.42134 9.23918 2.38993C9.31501 2.35852 9.38391 2.31248 9.44194 2.25444C9.49998 2.19641 9.54602 2.12751 9.57743 2.05168C9.60883 1.97585 9.625 1.89458 9.625 1.8125V1.1875C9.625 1.02174 9.55915 0.862768 9.44194 0.745558C9.32473 0.628348 9.16576 0.5625 9 0.5625C8.83424 0.5625 8.67527 0.628348 8.55806 0.745558C8.44085 0.862768 8.375 1.02174 8.375 1.1875V1.8125C8.375 1.89458 8.39117 1.97585 8.42257 2.05168C8.45398 2.12751 8.50002 2.19641 8.55806 2.25444C8.61609 2.31248 8.68499 2.35852 8.76082 2.38993C8.83665 2.42134 8.91792 2.4375 9 2.4375Z" fill="#6D6D85"/>
<path d="M3.47553 4.3596C3.53353 4.41779 3.60244 4.46397 3.67831 4.4955C3.75417 4.52703 3.83551 4.54329 3.91767 4.54336C3.99983 4.54342 4.08119 4.52729 4.15711 4.49588C4.23302 4.46447 4.302 4.4184 4.3601 4.36031C4.41819 4.30221 4.46426 4.23324 4.49568 4.15732C4.52709 4.08141 4.54323 4.00004 4.54316 3.91789C4.5431 3.83573 4.52684 3.75439 4.49532 3.67852C4.46379 3.60266 4.41761 3.53375 4.35943 3.47574L3.9175 3.03379C3.8595 2.97558 3.7906 2.92939 3.71472 2.89784C3.63885 2.86629 3.55751 2.85002 3.47534 2.84995C3.39317 2.84987 3.31179 2.866 3.23586 2.89741C3.15994 2.92882 3.09095 2.9749 3.03285 3.033C2.97474 3.0911 2.92867 3.16009 2.89726 3.23602C2.86585 3.31195 2.84972 3.39332 2.84979 3.47549C2.84987 3.55766 2.86614 3.63901 2.89769 3.71488C2.92923 3.79075 2.97543 3.85965 3.03364 3.91765L3.47553 4.3596Z" fill="#6D6D85"/>
<path d="M1.8125 8.375H1.1875C1.02174 8.375 0.862768 8.44085 0.745558 8.55806C0.628348 8.67527 0.5625 8.83424 0.5625 9C0.5625 9.16576 0.628348 9.32473 0.745558 9.44194C0.862768 9.55915 1.02174 9.625 1.1875 9.625H1.8125C1.97826 9.625 2.13723 9.55915 2.25444 9.44194C2.37165 9.32473 2.4375 9.16576 2.4375 9C2.4375 8.83424 2.37165 8.67527 2.25444 8.55806C2.13723 8.44085 1.97826 8.375 1.8125 8.375Z" fill="#6D6D85"/>
<path d="M3.47579 13.6404L3.03386 14.0824C2.97576 14.1404 2.92967 14.2093 2.89821 14.2851C2.86675 14.361 2.85055 14.4423 2.85052 14.5244C2.8505 14.6065 2.86665 14.6878 2.89806 14.7636C2.92947 14.8395 2.97552 14.9084 3.03358 14.9665C3.09164 15.0246 3.16057 15.0706 3.23643 15.102C3.31229 15.1334 3.3936 15.1496 3.47571 15.1495C3.55782 15.1495 3.63911 15.1333 3.71496 15.1019C3.7908 15.0704 3.8597 15.0243 3.91772 14.9662L4.35966 14.5243C4.47674 14.4071 4.54248 14.2481 4.54243 14.0824C4.54238 13.9167 4.47654 13.7579 4.35938 13.6407C4.24222 13.5235 4.08333 13.4577 3.91764 13.4576C3.75195 13.4576 3.59302 13.5233 3.47579 13.6404Z" fill="#6D6D85"/>
<path d="M9 15.5625C8.91792 15.5625 8.83665 15.5787 8.76082 15.6101C8.68499 15.6415 8.61609 15.6875 8.55805 15.7456C8.50002 15.8036 8.45398 15.8725 8.42257 15.9483C8.39116 16.0241 8.375 16.1054 8.375 16.1875V16.8125C8.375 16.9783 8.44085 17.1372 8.55806 17.2544C8.67527 17.3717 8.83424 17.4375 9 17.4375C9.16576 17.4375 9.32473 17.3717 9.44194 17.2544C9.55915 17.1372 9.625 16.9783 9.625 16.8125V16.1875C9.625 16.1054 9.60884 16.0241 9.57743 15.9483C9.54602 15.8725 9.49998 15.8036 9.44195 15.7456C9.38391 15.6875 9.31501 15.6415 9.23918 15.6101C9.16335 15.5787 9.08208 15.5625 9 15.5625Z" fill="#6D6D85"/>
<path d="M14.5242 13.6404C14.4069 13.5237 14.2481 13.4582 14.0826 13.4584C13.9171 13.4586 13.7585 13.5244 13.6414 13.6415C13.5244 13.7585 13.4586 13.9171 13.4584 14.0826C13.4582 14.2481 13.5236 14.407 13.6404 14.5243L14.0823 14.9662C14.1995 15.0833 14.3585 15.149 14.5242 15.149C14.6899 15.1489 14.8487 15.0831 14.9659 14.9659C15.0831 14.8488 15.1489 14.6899 15.149 14.5242C15.149 14.3585 15.0833 14.1996 14.9662 14.0823L14.5242 13.6404Z" fill="#6D6D85"/>
<path d="M16.8125 8.375H16.1875C16.0217 8.375 15.8628 8.44085 15.7456 8.55806C15.6283 8.67527 15.5625 8.83424 15.5625 9C15.5625 9.16576 15.6283 9.32473 15.7456 9.44194C15.8628 9.55915 16.0217 9.625 16.1875 9.625H16.8125C16.9783 9.625 17.1372 9.55915 17.2544 9.44194C17.3717 9.32473 17.4375 9.16576 17.4375 9C17.4375 8.83424 17.3717 8.67527 17.2544 8.55806C17.1372 8.44085 16.9783 8.375 16.8125 8.375Z" fill="#6D6D85"/>
<path d="M14.0824 4.54268C14.1645 4.54278 14.2458 4.52666 14.3216 4.49524C14.3975 4.46383 14.4664 4.41773 14.5244 4.35961L14.9663 3.91766C15.0243 3.85962 15.0703 3.79072 15.1017 3.7149C15.1332 3.63907 15.1493 3.5578 15.1493 3.47573C15.1493 3.39365 15.1332 3.31238 15.1017 3.23655C15.0703 3.16073 15.0243 3.09183 14.9663 3.03379C14.9082 2.97576 14.8393 2.92972 14.7635 2.89831C14.6877 2.8669 14.6064 2.85074 14.5243 2.85074C14.4423 2.85074 14.361 2.8669 14.2852 2.89831C14.2093 2.92972 14.1404 2.97576 14.0824 3.03379L13.6405 3.47575C13.5531 3.56315 13.4935 3.67452 13.4694 3.79575C13.4453 3.91699 13.4577 4.04266 13.505 4.15686C13.5523 4.27106 13.6324 4.36867 13.7352 4.43735C13.8379 4.50602 13.9588 4.54268 14.0824 4.54268V4.54268Z" fill="#6D6D85"/>
</svg>
