<svg width="21" height="21" viewBox="0 0 21 21" fill="none" xmlns="http://www.w3.org/2000/svg">
<path d="M18.5467 0.576904H2.50505C2.07974 0.577398 1.672 0.748993 1.37127 1.05405C1.07053 1.3591 0.901365 1.7727 0.900879 2.20411V18.4761C0.901365 18.9075 1.07053 19.3211 1.37127 19.6262C1.672 19.9312 2.07974 20.1028 2.50505 20.1033H18.5467C18.972 20.1028 19.3798 19.9312 19.6805 19.6262C19.9812 19.3211 20.1504 18.9075 20.1509 18.4761V2.20411C20.1504 1.7727 19.9812 1.3591 19.6805 1.05405C19.3798 0.748993 18.972 0.577398 18.5467 0.576904ZM5.71338 18.4761H2.50505V2.20411H5.71338V18.4761ZM15.3384 12.7809H8.92171C8.70899 12.7809 8.50497 12.6952 8.35455 12.5426C8.20413 12.39 8.11963 12.1831 8.11963 11.9673C8.11963 11.7515 8.20413 11.5446 8.35455 11.392C8.50497 11.2394 8.70899 11.1537 8.92171 11.1537H15.3384C15.5511 11.1537 15.7551 11.2394 15.9055 11.392C16.056 11.5446 16.1405 11.7515 16.1405 11.9673C16.1405 12.1831 16.056 12.39 15.9055 12.5426C15.7551 12.6952 15.5511 12.7809 15.3384 12.7809ZM15.3384 9.52652H8.92171C8.70899 9.52652 8.50497 9.4408 8.35455 9.28822C8.20413 9.13564 8.11963 8.92869 8.11963 8.71291C8.11963 8.49713 8.20413 8.29019 8.35455 8.13761C8.50497 7.98503 8.70899 7.89931 8.92171 7.89931H15.3384C15.5511 7.89931 15.7551 7.98503 15.9055 8.13761C16.056 8.29019 16.1405 8.49713 16.1405 8.71291C16.1405 8.92869 16.056 9.13564 15.9055 9.28822C15.7551 9.4408 15.5511 9.52652 15.3384 9.52652Z" fill="#8E8E9E"/>
</svg>
