<svg width="20" height="21" viewBox="0 0 20 21" fill="none" xmlns="http://www.w3.org/2000/svg">
<path d="M17.1453 9.61052C16.7251 9.61052 16.3144 9.70571 15.9422 9.88633V5.94931C15.9422 5.27647 15.4024 4.72891 14.7391 4.72891H10.8578C11.0359 4.3514 11.1297 3.93484 11.1297 3.50851C11.1297 1.93826 9.87045 0.660904 8.32243 0.660904C6.77441 0.660904 5.51514 1.93826 5.51514 3.50851C5.51514 3.93484 5.60898 4.3514 5.78704 4.72891H1.90576C1.24244 4.72891 0.702637 5.27647 0.702637 5.94931V9.01659C0.702665 9.09526 0.725182 9.17224 0.76746 9.2382C0.809738 9.30415 0.869963 9.35626 0.94084 9.3882C1.01172 9.42015 1.09021 9.43056 1.1668 9.41818C1.24339 9.40579 1.3148 9.37115 1.37238 9.31844C1.7383 8.9825 2.21431 8.79661 2.70785 8.79692C3.81312 8.79692 4.71305 9.70978 4.71305 10.8309C4.71305 11.9521 3.81312 12.8649 2.70785 12.8649C2.21431 12.8652 1.7383 12.6793 1.37238 12.3434C1.31468 12.2911 1.24331 12.2567 1.16684 12.2445C1.09037 12.2324 1.01205 12.2428 0.941312 12.2747C0.870572 12.3066 0.810416 12.3585 0.768075 12.4243C0.725734 12.49 0.70301 12.5667 0.702637 12.6453V18.9669C0.702637 19.6398 1.24244 20.1873 1.90576 20.1873H8.13795C8.21551 20.1873 8.29139 20.1645 8.35642 20.1216C8.42144 20.0787 8.47281 20.0176 8.5043 19.9457C8.53579 19.8738 8.54605 19.7942 8.53385 19.7165C8.52164 19.6388 8.48749 19.5664 8.43552 19.508C8.10434 19.1368 7.92109 18.654 7.92139 18.1533C7.92139 17.0322 8.82132 16.1193 9.92659 16.1193C11.0319 16.1193 11.9318 17.0322 11.9318 18.1533C11.9318 18.6553 11.7489 19.1362 11.4177 19.508C11.3657 19.5664 11.3315 19.6388 11.3193 19.7165C11.3071 19.7942 11.3174 19.8738 11.3489 19.9457C11.3804 20.0176 11.4318 20.0787 11.4968 20.1216C11.5618 20.1645 11.6377 20.1873 11.7152 20.1873H14.7391C15.4024 20.1873 15.9422 19.6398 15.9422 18.9669V15.0299C16.3144 15.2105 16.7251 15.3057 17.1453 15.3057C18.6934 15.3057 19.9526 14.0284 19.9526 12.4581C19.9526 10.8879 18.6934 9.61052 17.1453 9.61052Z" fill="#8E8E9E"/>
</svg>
