<svg width="20" height="20" viewBox="0 0 20 20" fill="none" xmlns="http://www.w3.org/2000/svg">
<path d="M0.250002 1.87558L0.25 18.1256C0.250425 18.5564 0.421766 18.9695 0.726421 19.2742C1.03108 19.5788 1.44415 19.7502 1.875 19.7506L18.125 19.7506C18.5558 19.7502 18.9689 19.5788 19.2736 19.2742C19.5782 18.9695 19.7496 18.5564 19.75 18.1256L19.75 1.87558C19.7496 1.44473 19.5782 1.03166 19.2736 0.727001C18.9689 0.422346 18.5558 0.251005 18.125 0.25058L1.875 0.250578C1.44415 0.251004 1.03108 0.422344 0.726423 0.727C0.421768 1.03165 0.250427 1.44473 0.250002 1.87558ZM11.1902 5.97775L14.636 9.42512C14.7883 9.57789 14.8739 9.78483 14.8739 10.0006C14.8739 10.2163 14.7883 10.4233 14.636 10.576L11.1902 14.0218C11.0378 14.1739 10.8312 14.2593 10.6159 14.2592C10.4006 14.259 10.1941 14.1735 10.0419 14.0212C9.88962 13.869 9.80404 13.6625 9.80392 13.4472C9.80381 13.2319 9.88917 13.0253 10.0413 12.8729L12.1011 10.8131L5.9375 10.8131C5.72201 10.8131 5.51535 10.7275 5.36298 10.5751C5.2106 10.4227 5.125 10.2161 5.125 10.0006C5.125 9.78509 5.2106 9.57843 5.36298 9.42605C5.51535 9.27368 5.72201 9.18808 5.9375 9.18808L12.1016 9.18808L10.0413 7.12668C9.88917 6.97427 9.80381 6.76771 9.80392 6.5524C9.80404 6.33708 9.88962 6.13062 10.0419 5.97837C10.1941 5.82611 10.4006 5.74053 10.6159 5.74041C10.8312 5.7403 11.0378 5.82566 11.1902 5.97775L11.1902 5.97775Z" fill="#9292A6"/>
</svg>
