<svg width="22" height="18" viewBox="0 0 22 18" fill="none" xmlns="http://www.w3.org/2000/svg">
<path d="M19.9375 0.0625H2.0625C1.63167 0.0629927 1.21864 0.234356 0.913996 0.538996C0.609356 0.843636 0.437993 1.25667 0.4375 1.6875V16.3125C0.437993 16.7433 0.609356 17.1564 0.913996 17.461C1.21864 17.7656 1.63167 17.937 2.0625 17.9375H19.9375C20.3683 17.937 20.7814 17.7656 21.086 17.461C21.3906 17.1564 21.562 16.7433 21.5625 16.3125V1.6875C21.562 1.25667 21.3906 0.843636 21.086 0.538996C20.7814 0.234356 20.3683 0.0629927 19.9375 0.0625ZM11 12.25C9.70751 12.2485 8.46838 11.7345 7.55446 10.8205C6.64053 9.90662 6.12645 8.66749 6.125 7.375C6.125 7.15951 6.2106 6.95285 6.36298 6.80048C6.51535 6.6481 6.72201 6.5625 6.9375 6.5625C7.15299 6.5625 7.35965 6.6481 7.51202 6.80048C7.6644 6.95285 7.75 7.15951 7.75 7.375C7.75 8.23695 8.09241 9.0636 8.7019 9.6731C9.3114 10.2826 10.138 10.625 11 10.625C11.862 10.625 12.6886 10.2826 13.2981 9.6731C13.9076 9.0636 14.25 8.23695 14.25 7.375C14.25 7.15951 14.3356 6.95285 14.488 6.80048C14.6403 6.6481 14.847 6.5625 15.0625 6.5625C15.278 6.5625 15.4847 6.6481 15.637 6.80048C15.7894 6.95285 15.875 7.15951 15.875 7.375C15.8735 8.66749 15.3595 9.90662 14.4455 10.8205C13.5316 11.7345 12.2925 12.2485 11 12.25ZM2.0625 3.3125V1.6875H19.9375L19.9376 3.3125H2.0625Z" fill="#9292A6"/>
</svg>
