<svg width="37" height="37" viewBox="0 0 37 37" fill="none" xmlns="http://www.w3.org/2000/svg">
<path d="M29.3286 1.50406C28.1745 0.615952 26.7396 0.0824585 25.1781 0.0824585H7.57965C3.7763 0.0824585 0.692383 3.21141 0.692383 7.06862V24.9205C0.692383 26.6009 1.27839 28.142 2.25307 29.3484C3.03811 33.1564 6.37247 36.0258 10.3562 36.0258H27.9538C32.5179 36.0258 36.231 32.2588 36.231 27.6284V9.77574C36.2309 5.62086 33.2389 2.17132 29.3286 1.50406ZM26.9463 24.9481H27.5184V27.9719H26.845V25.5765H26.8356L26.2667 25.8504L26.1528 25.3201L26.9463 24.9481ZM15.3995 18.1907C12.3281 17.1522 11.1544 15.4725 11.1849 13.701C11.1849 10.891 13.5329 8.78466 17.1756 8.78466C18.8915 8.78466 20.3977 9.21211 21.2998 9.66953L20.5179 12.877C19.8545 12.5104 18.5608 12.0213 17.3263 12.0213C16.212 12.0213 15.5807 12.4804 15.5807 13.2118C15.5807 13.9455 16.1526 14.312 17.9584 14.9524C20.7583 15.9292 21.9022 17.396 21.9327 19.5639C21.9327 22.3731 19.7954 24.42 15.5807 24.42C13.6541 24.42 11.9381 23.961 10.8238 23.3499L11.6369 20.0514C12.4789 20.5715 14.2261 21.1518 15.5807 21.1518C16.9651 21.1518 17.537 20.6943 17.537 19.9303C17.5369 19.1373 17.085 18.771 15.3995 18.1907ZM33.4481 27.6275C33.4481 30.7011 30.9839 33.2024 27.9538 33.2024H10.3562C8.99288 33.2024 7.7467 32.6926 6.78531 31.8567C7.04596 31.8876 7.31052 31.9067 7.58047 31.9067H25.1781C28.9831 31.9067 32.0646 28.7785 32.0646 24.9206V7.06945C32.0646 6.70059 32.028 6.34201 31.9741 5.98897C32.8863 6.98477 33.4489 8.31457 33.4489 9.77648V27.6275H33.4481Z" fill="#EB8167"/>
</svg>
